<svg width="28" height="28" xmlns="http://www.w3.org/2000/svg" xmlns:xlink="http://www.w3.org/1999/xlink" overflow="hidden"><defs><clipPath id="clip0"><rect x="423" y="291" width="28" height="28"/></clipPath></defs><g clip-path="url(#clip0)" transform="translate(-423 -291)"><path d="M445.75 310.133 441.757 303.769C441.686 303.653 441.558 303.582 441.422 303.582 441.284 303.582 441.157 303.653 441.083 303.769L439.917 305.642 442.419 309.69C442.631 310.01 442.676 310.413 442.542 310.772L445.371 310.772C445.603 310.784 445.8 310.605 445.811 310.374 445.815 310.289 445.794 310.205 445.75 310.133Z" fill="#92D050"/><path d="M441.404 310.171 435.06 299.849C434.979 299.744 434.852 299.684 434.719 299.689L434.667 299.689 434.614 299.689C434.481 299.684 434.354 299.744 434.273 299.849L427.929 310.171C427.839 310.297 427.827 310.462 427.897 310.6 427.968 310.725 428.108 310.793 428.25 310.772L441.083 310.772C441.225 310.793 441.365 310.725 441.436 310.6 441.506 310.462 441.494 310.297 441.404 310.171ZM435.728 304.685 434.719 305.583 433.71 304.685 432.042 305.694 434.667 301.439 437.222 305.583Z" fill="#92D050"/><path d="M431.75 300.333C431.75 300.817 431.358 301.208 430.875 301.208 430.392 301.208 430 300.817 430 300.333 430 299.85 430.392 299.458 430.875 299.458 431.358 299.458 431.75 299.85 431.75 300.333Z" fill="#92D050"/><path d="M427.083 312.583 427.083 298 446.917 298 446.917 312.583ZM448.667 314.333 448.667 296.25 425.333 296.25 425.333 314.333Z" fill="#92D050"/></g></svg>