<svg width="29" height="28" xmlns="http://www.w3.org/2000/svg" xmlns:xlink="http://www.w3.org/1999/xlink" overflow="hidden"><defs><clipPath id="clip0"><rect x="468" y="291" width="29" height="28"/></clipPath></defs><g clip-path="url(#clip0)" transform="translate(-468 -291)"><path d="M23.3333 19.25C23.3181 18.5193 22.9755 17.834 22.4 17.3833 21.1167 16.3333 19.4833 15.6333 17.85 15.1667 16.6022 14.7847 15.305 14.5881 14 14.5833 12.6965 14.6058 11.4017 14.802 10.15 15.1667 8.5188 15.6427 6.98025 16.3922 5.6 17.3833 5.02454 17.834 4.68189 18.5193 4.66667 19.25L4.66667 23.9167 23.3333 23.9167Z" fill="#92D050" transform="matrix(1.03571 0 0 1 468 291)"/><path d="M18.9904 12.1333C18.7221 11.0833 19.7487 8.45833 19.7575 6.60917 19.7575 5.13042 19.3375 4.46833 18.5442 4.01917 18.0862 3.75958 17.0304 3.99875 17.0304 3.99875 17.0304 3.99875 16.485 2.96625 14.6592 2.3975 13.1589 1.98903 11.5577 2.19363 10.2083 2.96625 9.07958 3.69542 8.53417 4.4975 8.50792 7.25667 8.48458 9.78542 8.83167 12.0312 8.67125 13.09 8.59728 13.676 8.37436 14.2334 8.02375 14.7087 8.02375 14.7087 9.77375 14.9333 10.7508 14.4171 11.2425 14.0872 11.7086 13.7206 12.145 13.3204 10.6481 12.6223 9.5569 11.2728 9.1875 9.66292 9.14958 9.52292 8.89583 8.60708 9.30125 8.09375 9.52292 7.80208 10.0304 7.72042 10.8763 7.57167 11.8887 7.43829 12.8769 7.16033 13.8104 6.74625 14.8598 6.21854 15.8331 5.55138 16.7037 4.76292 16.8185 4.6499 17.0032 4.6513 17.1162 4.76607 17.1592 4.8097 17.1873 4.86573 17.1967 4.92625 17.2661 5.40604 17.4329 5.86655 17.6867 6.27958 17.8055 6.43189 17.952 6.56052 18.1183 6.65875 18.3123 6.77495 18.4793 6.93102 18.6083 7.11667 18.8189 7.52771 18.9383 7.97939 18.9583 8.44083 18.9393 10.5692 17.6747 12.4889 15.7267 13.3467 16.0942 13.6704 16.5754 14.07 17.1063 14.455 17.9813 15.0879 20.0958 14.2129 20.0958 14.2129 20.0958 14.2129 19.4133 13.8046 18.9904 12.1333Z" fill="#92D050" transform="matrix(1.03571 0 0 1 468 291)"/><path d="M18.375 8.45833C18.3594 8.1058 18.2742 7.75982 18.1242 7.44042 18.0387 7.31973 17.9271 7.22 17.7975 7.14875 17.5744 7.01438 17.3769 6.8416 17.2142 6.63833 16.9795 6.30047 16.8103 5.92153 16.7154 5.52125 15.9011 6.20495 15.0105 6.79216 14.0612 7.27125 13.0759 7.70957 12.0328 8.00424 10.9637 8.14625 10.4708 8.23375 9.85542 8.34167 9.75042 8.4525 9.57542 8.68 9.66583 9.26042 9.75042 9.50542 10.2492 11.6083 12.0342 13.125 14 13.125 16.3333 13.125 18.375 10.9433 18.375 8.45833Z" fill="#92D050" transform="matrix(1.03571 0 0 1 468 291)"/></g></svg>