<svg width="29" height="29" xmlns="http://www.w3.org/2000/svg" xmlns:xlink="http://www.w3.org/1999/xlink" overflow="hidden"><defs><clipPath id="clip0"><rect x="560" y="290" width="29" height="29"/></clipPath></defs><g clip-path="url(#clip0)" transform="translate(-560 -290)"><path d="M574.5 294.833C569.153 294.833 564.833 299.153 564.833 304.5 564.833 309.847 569.153 314.167 574.5 314.167 579.847 314.167 584.167 309.847 584.167 304.5 584.167 299.153 579.847 294.833 574.5 294.833ZM574.5 315.979C568.156 315.979 563.021 310.844 563.021 304.5 563.021 298.156 568.156 293.021 574.5 293.021 580.844 293.021 585.979 298.156 585.979 304.5 585.979 310.844 580.844 315.979 574.5 315.979Z" fill="#92D050"/><path d="M580.542 302.083 576.917 302.083 576.917 298.458C576.917 297.794 576.373 297.25 575.708 297.25L573.292 297.25C572.627 297.25 572.083 297.794 572.083 298.458L572.083 302.083 568.458 302.083C567.794 302.083 567.25 302.627 567.25 303.292L567.25 305.708C567.25 306.373 567.794 306.917 568.458 306.917L572.083 306.917 572.083 310.542C572.083 311.206 572.627 311.75 573.292 311.75L575.708 311.75C576.373 311.75 576.917 311.206 576.917 310.542L576.917 306.917 580.542 306.917C581.206 306.917 581.75 306.373 581.75 305.708L581.75 303.292C581.75 302.627 581.206 302.083 580.542 302.083Z" fill="#92D050"/></g></svg>