<svg width="29" height="29" xmlns="http://www.w3.org/2000/svg" xmlns:xlink="http://www.w3.org/1999/xlink" overflow="hidden"><defs><clipPath id="clip0"><rect x="377" y="290" width="29" height="29"/></clipPath></defs><g clip-path="url(#clip0)" transform="translate(-377 -290)"><path d="M383.948 314.771 383.948 294.229 391.5 294.229 391.5 300.573 399.052 300.573 399.052 314.771 383.948 314.771ZM393.312 294.984 397.089 298.76 393.312 298.76 393.312 294.984ZM393.312 292.417 382.135 292.417 382.135 316.583 400.865 316.583 400.865 299.062 393.312 292.417Z" fill="#92D050"/><path d="M385.76 303.594 397.24 303.594 397.24 304.802 385.76 304.802Z" fill="#92D050"/><path d="M385.76 301.177 389.688 301.177 389.688 302.385 385.76 302.385Z" fill="#92D050"/><path d="M385.76 306.01 397.24 306.01 397.24 307.219 385.76 307.219Z" fill="#92D050"/><path d="M385.76 308.427 397.24 308.427 397.24 309.635 385.76 309.635Z" fill="#92D050"/><path d="M385.76 310.844 397.24 310.844 397.24 312.052 385.76 312.052Z" fill="#92D050"/></g></svg>