<svg width="19" height="19" xmlns="http://www.w3.org/2000/svg" xmlns:xlink="http://www.w3.org/1999/xlink" overflow="hidden"><defs><clipPath id="clip0"><rect x="376" y="424" width="19" height="19"/></clipPath></defs><g clip-path="url(#clip0)" transform="translate(-376 -424)"><path d="M380.948 433.5C380.948 433.172 381.214 432.906 381.542 432.906L388.025 432.906 386.268 431.149C386.044 430.909 386.058 430.533 386.298 430.31 386.526 430.097 386.879 430.097 387.107 430.31L389.878 433.08C390.109 433.312 390.109 433.688 389.878 433.92L387.107 436.69C386.867 436.914 386.491 436.901 386.268 436.661 386.055 436.433 386.055 436.079 386.268 435.851L388.025 434.094 381.542 434.094C381.214 434.094 380.948 433.828 380.948 433.5Z" fill="#92D050"/><path d="M393.021 433.5C393.021 429.346 389.654 425.979 385.5 425.979 381.346 425.979 377.979 429.346 377.979 433.5 377.979 437.654 381.346 441.021 385.5 441.021 389.654 441.021 393.021 437.654 393.021 433.5ZM391.833 433.5C391.833 436.998 388.998 439.833 385.5 439.833 382.002 439.833 379.167 436.998 379.167 433.5 379.167 430.002 382.002 427.167 385.5 427.167 388.998 427.167 391.833 430.002 391.833 433.5Z" fill="#92D050"/></g></svg>