<svg width="29" height="29" xmlns="http://www.w3.org/2000/svg" xmlns:xlink="http://www.w3.org/1999/xlink" overflow="hidden"><defs><clipPath id="clip0"><rect x="514" y="291" width="29" height="29"/></clipPath></defs><g clip-path="url(#clip0)" transform="translate(-514 -291)"><path d="M531.914 302.268C530.645 302.268 529.648 301.241 529.648 300.002 529.648 298.764 530.675 297.736 531.914 297.736 533.182 297.736 534.179 298.764 534.179 300.002 534.179 301.241 533.152 302.268 531.914 302.268ZM537.019 298.582C536.898 298.159 536.747 297.767 536.535 297.404L537.019 295.984 535.931 294.897 534.511 295.38C534.149 295.169 533.756 295.018 533.333 294.897L532.669 293.568 531.158 293.568 530.494 294.897C530.071 295.018 529.678 295.169 529.316 295.38L527.896 294.897 526.808 295.984 527.292 297.404C527.08 297.767 526.929 298.159 526.808 298.582L525.479 299.247 525.479 300.757 526.808 301.422C526.929 301.845 527.08 302.237 527.292 302.6L526.808 304.02 527.866 305.077 529.285 304.594C529.648 304.805 530.041 304.956 530.464 305.077L531.128 306.406 532.639 306.406 533.303 305.077C533.726 304.956 534.119 304.805 534.481 304.594L535.901 305.077 536.989 304.02 536.505 302.6C536.717 302.237 536.898 301.815 537.019 301.422L538.348 300.757 538.348 299.247 537.019 298.582Z" fill="#92D050"/><path d="M525.086 313.264C523.818 313.264 522.821 312.236 522.821 310.998 522.821 309.729 523.848 308.732 525.086 308.732 526.355 308.732 527.352 309.759 527.352 310.998 527.352 312.236 526.355 313.264 525.086 313.264L525.086 313.264ZM529.708 308.4 530.192 306.98 529.104 305.893 527.684 306.376C527.322 306.165 526.899 306.014 526.506 305.893L525.842 304.564 524.331 304.564 523.667 305.893C523.244 306.014 522.851 306.165 522.489 306.376L521.069 305.893 520.011 306.95 520.465 308.37C520.253 308.732 520.102 309.155 519.981 309.548L518.652 310.212 518.652 311.723 519.981 312.388C520.102 312.81 520.253 313.203 520.465 313.566L520.011 314.985 521.069 316.043 522.489 315.59C522.851 315.801 523.244 315.952 523.667 316.073L524.331 317.402 525.842 317.402 526.506 316.073C526.929 315.952 527.322 315.801 527.684 315.59L529.104 316.073 530.161 314.985 529.708 313.596C529.92 313.233 530.071 312.841 530.192 312.418L531.521 311.753 531.521 310.243 530.192 309.578C530.071 309.155 529.92 308.763 529.708 308.4Z" fill="#92D050"/></g></svg>